<svg width="32" height="32" viewBox="0 0 32 32" fill="none" xmlns="http://www.w3.org/2000/svg">
  <path d="M10.9775 24.5387C10.9385 24.9212 10.8153 25.2903 10.6167 25.6195C10.418 25.9486 10.149 26.2297 9.82875 26.4425C9.18 26.875 8.375 27 7.6425 27C7.00371 26.996 6.36793 26.912 5.75 26.75C5.4976 26.6761 5.28449 26.5057 5.15681 26.2758C5.02914 26.0458 4.99718 25.7749 5.06787 25.5215C5.13856 25.2682 5.30619 25.0529 5.53447 24.9223C5.76275 24.7917 6.03329 24.7563 6.2875 24.8237C6.835 24.9737 8.15625 25.1612 8.73125 24.7787C8.84125 24.705 8.96 24.5888 8.99875 24.2875C9.0425 23.9538 8.91 23.775 7.40125 23.3388C6.2325 23.0013 4.27625 22.435 4.52625 20.45C4.56516 20.075 4.68612 19.7132 4.88055 19.3903C5.07497 19.0673 5.3381 18.7911 5.65125 18.5812C7.13125 17.5812 9.49125 18.1675 9.755 18.2362C10.0116 18.3037 10.2309 18.4703 10.3646 18.6995C10.4984 18.9286 10.5356 19.2015 10.4681 19.4581C10.4007 19.7147 10.234 19.934 10.0049 20.0677C9.77573 20.2015 9.50285 20.2387 9.24625 20.1712C8.68625 20.025 7.3425 19.8512 6.7675 20.2412C6.69213 20.2921 6.63008 20.3603 6.58657 20.4401C6.54306 20.52 6.51938 20.6091 6.5175 20.7C6.50375 20.8125 6.5 20.8362 6.6575 20.9375C6.94625 21.1238 7.4625 21.2725 7.96375 21.4175C9.1875 21.7712 11.2575 22.375 10.9775 24.5387ZM27 11V14C27 14.2652 26.8946 14.5196 26.7071 14.7071C26.5196 14.8946 26.2652 15 26 15C25.7348 15 25.4804 14.8946 25.2929 14.7071C25.1054 14.5196 25 14.2652 25 14V12H19C18.7348 12 18.4804 11.8946 18.2929 11.7071C18.1054 11.5196 18 11.2652 18 11V5H7V14C7 14.2652 6.89464 14.5196 6.70711 14.7071C6.51957 14.8946 6.26522 15 6 15C5.73478 15 5.48043 14.8946 5.29289 14.7071C5.10536 14.5196 5 14.2652 5 14V5C5 4.46957 5.21071 3.96086 5.58579 3.58579C5.96086 3.21071 6.46957 3 7 3H19C19.2649 3.00012 19.5189 3.10532 19.7062 3.2925L26.7062 10.2925C26.7993 10.3853 26.8732 10.4956 26.9236 10.617C26.974 10.7384 26.9999 10.8686 27 11ZM20 10H23.5863L20 6.41375V10ZM18.3375 18.0588C18.2138 18.0145 18.0826 17.995 17.9514 18.0014C17.8202 18.0079 17.6915 18.0401 17.5728 18.0963C17.454 18.1525 17.3475 18.2315 17.2593 18.3289C17.1711 18.4262 17.103 18.54 17.0588 18.6637L15.5 23.0263L13.9412 18.6637C13.9002 18.5362 13.8339 18.4183 13.7463 18.3169C13.6588 18.2155 13.5517 18.1327 13.4316 18.0735C13.3114 18.0143 13.1806 17.9798 13.0468 17.9721C12.9131 17.9644 12.7792 17.9837 12.653 18.0287C12.5269 18.0738 12.4111 18.1438 12.3125 18.2345C12.2139 18.3251 12.1345 18.4347 12.0791 18.5567C12.0236 18.6786 11.9933 18.8105 11.9898 18.9444C11.9863 19.0783 12.0097 19.2116 12.0588 19.3363L14.5588 26.3363C14.6281 26.5306 14.7558 26.6987 14.9244 26.8176C15.093 26.9365 15.2943 27.0003 15.5006 27.0003C15.7069 27.0003 15.9082 26.9365 16.0768 26.8176C16.2455 26.6987 16.3732 26.5306 16.4425 26.3363L18.9425 19.3363C19.0315 19.0866 19.0178 18.8118 18.9044 18.5723C18.791 18.3327 18.5871 18.148 18.3375 18.0588ZM26 22H25C24.7348 22 24.4804 22.1054 24.2929 22.2929C24.1054 22.4804 24 22.7348 24 23C24 23.2652 24.1054 23.5196 24.2929 23.7071C24.4804 23.8946 24.7348 24 25 24V24.6612C24.712 24.8792 24.3612 24.998 24 25C22.8975 25 22 23.875 22 22.5C22 21.125 22.8975 20 24 20C24.3367 20.0013 24.665 20.1051 24.9412 20.2975C25.1611 20.4407 25.4284 20.4917 25.6855 20.4396C25.9427 20.3875 26.169 20.2364 26.3158 20.019C26.4626 19.8015 26.518 19.5351 26.4702 19.2771C26.4223 19.0192 26.275 18.7903 26.06 18.64C25.4529 18.2253 24.7353 18.0023 24 18C21.795 18 20 20.0187 20 22.5C20 24.9813 21.795 27 24 27C24.5116 26.9959 25.0169 26.8873 25.4851 26.6809C25.9532 26.4746 26.3743 26.1748 26.7225 25.8C26.9006 25.6139 27 25.3663 27 25.1087V23C27 22.7348 26.8946 22.4804 26.7071 22.2929C26.5196 22.1054 26.2652 22 26 22Z" fill="currentColor"/>
</svg>
