<svg width="24" height="24" viewBox="0 0 24 24" fill="none" xmlns="http://www.w3.org/2000/svg">
  <path d="M12.6598 6.54961C12.6598 6.16301 12.3464 5.84961 11.9598 5.84961C11.5732 5.84961 11.2598 6.16301 11.2598 6.54961V15.6292L7.60513 11.9746C7.33176 11.7012 6.88855 11.7012 6.61518 11.9746C6.34181 12.2479 6.34181 12.6911 6.61518 12.9645L11.398 17.7473C11.5256 17.9187 11.7297 18.0296 11.9598 18.0296C11.9633 18.0296 11.9668 18.0296 11.9703 18.0295C12.1559 18.0295 12.3339 17.9557 12.4651 17.8245L17.3251 12.9645C17.5985 12.6911 17.5985 12.2479 17.3251 11.9746C17.0518 11.7012 16.6085 11.7012 16.3352 11.9746L12.6598 15.65V6.54961Z" fill="#000000"/>
</svg>
