<svg width="24" height="24" viewBox="0 0 24 24" fill="none" xmlns="http://www.w3.org/2000/svg">
<path fill-rule="evenodd" clip-rule="evenodd" d="M12.0061 6.70503C12.2795 6.97839 12.2795 7.42161 12.0061 7.69497L7.64112 12.06L12.0061 16.425C12.2795 16.6984 12.2795 17.1416 12.0061 17.415C11.7328 17.6883 11.2896 17.6883 11.0162 17.415L6.1562 12.555C6.02492 12.4237 5.95117 12.2457 5.95117 12.06C5.95117 11.8743 6.02492 11.6963 6.1562 11.565L11.0162 6.70503C11.2896 6.43166 11.7328 6.43166 12.0061 6.70503Z" fill="#000000"/>
<path fill-rule="evenodd" clip-rule="evenodd" d="M5.95117 12.06C5.95117 11.6734 6.26457 11.36 6.65117 11.36H17.4212C17.8078 11.36 18.1212 11.6734 18.1212 12.06C18.1212 12.4466 17.8078 12.76 17.4212 12.76H6.65117C6.26457 12.76 5.95117 12.4466 5.95117 12.06Z" fill="#000000"/>
</svg>
