<svg width="24" height="24" viewBox="0 0 24 24" fill="none" xmlns="http://www.w3.org/2000/svg">
<path fill-rule="evenodd" clip-rule="evenodd" d="M12.084 6.67573C12.3574 6.40236 12.8006 6.40236 13.074 6.67573L17.934 11.5357C18.0652 11.667 18.139 11.8451 18.139 12.0307C18.139 12.2164 18.0652 12.3944 17.934 12.5257L13.074 17.3857C12.8006 17.659 12.3574 17.659 12.084 17.3857C11.8106 17.1123 11.8106 16.6691 12.084 16.3957L15.749 12.7307H6.65898C6.27239 12.7307 5.95898 12.4173 5.95898 12.0307C5.95898 11.6441 6.27239 11.3307 6.65898 11.3307H15.749L12.084 7.66568C11.8106 7.39231 11.8106 6.9491 12.084 6.67573Z" fill="currentColor"/>
</svg>
