<svg width="24" height="24" viewBox="0 0 24 24" fill="none" xmlns="http://www.w3.org/2000/svg">
<path d="M12.0333 5.97072C11.8526 5.96955 11.6716 6.03789 11.5338 6.17573L6.67378 11.0357C6.40041 11.3091 6.40041 11.7523 6.67378 12.0257C6.94714 12.299 7.39036 12.299 7.66372 12.0257L11.3379 8.35151V17.4407C11.3379 17.8273 11.6513 18.1407 12.0379 18.1407C12.4245 18.1407 12.7379 17.8273 12.7379 17.4407V8.36979L16.3938 12.0257C16.6671 12.299 17.1104 12.299 17.3837 12.0257C17.6571 11.7523 17.6571 11.3091 17.3837 11.0357L12.5956 6.24761C12.4678 6.07935 12.2655 5.9707 12.0379 5.9707L12.0333 5.97072Z" fill="#000000"/>
</svg>
