<svg width="24" height="24" viewBox="0 0 24 24" fill="none" xmlns="http://www.w3.org/2000/svg">
<path fill-rule="evenodd" clip-rule="evenodd" d="M4.19434 4.24854C4.46765 3.93377 4.92781 3.91554 5.22215 4.20783L19.7676 18.6523C20.0619 18.9446 20.079 19.4367 19.8057 19.7515C19.5324 20.0662 19.0722 20.0845 18.7779 19.7922L4.2324 5.34773C3.93807 5.05544 3.92102 4.56332 4.19434 4.24854Z" fill="currentColor"/>
<path fill-rule="evenodd" clip-rule="evenodd" d="M19.8057 4.24854C20.079 4.56332 20.0619 5.05544 19.7676 5.34773L5.22215 19.7922C4.92781 20.0845 4.46765 20.0662 4.19434 19.7515C3.92102 19.4367 3.93807 18.9446 4.2324 18.6523L18.7779 4.20783C19.0722 3.91554 19.5324 3.93377 19.8057 4.24854Z" fill="currentColor"/>
</svg>
