<svg width="24" height="24" viewBox="0 0 24 24" fill="none" xmlns="http://www.w3.org/2000/svg">
<path fill-rule="evenodd" clip-rule="evenodd" d="M1.91992 6.61992C1.91992 6.23332 2.23332 5.91992 2.61992 5.91992H21.3799C21.7665 5.91992 22.0799 6.23332 22.0799 6.61992C22.0799 7.00652 21.7665 7.31992 21.3799 7.31992H2.61992C2.23332 7.31992 1.91992 7.00652 1.91992 6.61992ZM1.91992 11.9999C1.91992 11.6133 2.23332 11.2999 2.61992 11.2999H21.3799C21.7665 11.2999 22.0799 11.6133 22.0799 11.9999C22.0799 12.3865 21.7665 12.6999 21.3799 12.6999H2.61992C2.23332 12.6999 1.91992 12.3865 1.91992 11.9999ZM1.91992 17.3799C1.91992 16.9933 2.23332 16.6799 2.61992 16.6799H21.3799C21.7665 16.6799 22.0799 16.9933 22.0799 17.3799C22.0799 17.7665 21.7665 18.0799 21.3799 18.0799H2.61992C2.23332 18.0799 1.91992 17.7665 1.91992 17.3799Z" fill="currentColor"/>
</svg>
