<svg width="24" height="24" viewBox="0 0 24 24" fill="none" xmlns="http://www.w3.org/2000/svg">
<path fill-rule="evenodd" clip-rule="evenodd" d="M12 4.86782C8.061 4.86782 4.86782 8.061 4.86782 12C4.86782 15.939 8.061 19.1322 12 19.1322C15.939 19.1322 19.1322 15.939 19.1322 12C19.1322 11.6223 19.4384 11.3161 19.8161 11.3161C20.1938 11.3161 20.5 11.6223 20.5 12C20.5 16.6944 16.6944 20.5 12 20.5C7.30558 20.5 3.5 16.6944 3.5 12C3.5 7.30558 7.30558 3.5 12 3.5C14.061 3.5 15.9523 4.23441 17.4238 5.45511C17.7145 5.69627 17.7547 6.12743 17.5135 6.41813C17.2724 6.70884 16.8412 6.749 16.5505 6.50785C15.3154 5.48323 13.7305 4.86782 12 4.86782Z" fill="#000000"/>
<path fill-rule="evenodd" clip-rule="evenodd" d="M16.8851 6.43103C17.0469 6.43103 17.1782 6.29981 17.1782 6.13793V4.18391C17.1782 3.8062 17.4844 3.5 17.8621 3.5C18.2398 3.5 18.546 3.8062 18.546 4.18391V6.13793C18.546 7.05523 17.8024 7.79885 16.8851 7.79885H14.931C14.5533 7.79885 14.2471 7.49265 14.2471 7.11494C14.2471 6.73723 14.5533 6.43103 14.931 6.43103H16.8851Z" fill="#000000"/>
</svg>
