<svg width="24" height="24" viewBox="0 0 24 24" fill="none" xmlns="http://www.w3.org/2000/svg">
<path fill-rule="evenodd" clip-rule="evenodd" d="M11.3639 5.1998C7.97826 5.1998 5.2457 7.9151 5.2457 11.2498C5.2457 14.5845 7.97826 17.2998 11.3639 17.2998C14.7495 17.2998 17.4821 14.5845 17.4821 11.2498C17.4821 7.9151 14.7495 5.1998 11.3639 5.1998ZM3.8457 11.2498C3.8457 7.12867 7.21836 3.7998 11.3639 3.7998C15.5094 3.7998 18.8821 7.12867 18.8821 11.2498C18.8821 13.248 18.0892 15.0599 16.7998 16.3964L20.1897 19.7523C20.4644 20.0243 20.4667 20.4675 20.1947 20.7423C19.9227 21.017 19.4795 21.0193 19.2047 20.7473L15.7347 17.3119C14.5022 18.1859 12.9927 18.6998 11.3639 18.6998C7.21836 18.6998 3.8457 15.3709 3.8457 11.2498Z" fill="#000000"/>
</svg>
