<svg width="24" height="24" viewBox="0 0 24 24" fill="none" xmlns="http://www.w3.org/2000/svg">
  <path fill-rule="evenodd" clip-rule="evenodd" d="M15.3515 15.8359C15.6249 15.5625 16.0681 15.5625 16.3415 15.8359L20.3815 19.8759C20.6548 20.1493 20.6548 20.5925 20.3815 20.8658C20.1081 21.1392 19.6649 21.1392 19.3915 20.8658L15.3515 16.8258C15.0781 16.5525 15.0781 16.1093 15.3515 15.8359Z" fill="#000091"/>
  <path fill-rule="evenodd" clip-rule="evenodd" d="M11.286 4.33066C7.71273 4.33066 4.81602 7.22738 4.81602 10.8007C4.81602 14.3739 7.71273 17.2707 11.286 17.2707C14.8593 17.2707 17.756 14.3739 17.756 10.8007C17.756 7.22738 14.8593 4.33066 11.286 4.33066ZM3.41602 10.8007C3.41602 6.45418 6.93953 2.93066 11.286 2.93066C15.6325 2.93066 19.156 6.45418 19.156 10.8007C19.156 15.1471 15.6325 18.6707 11.286 18.6707C6.93953 18.6707 3.41602 15.1471 3.41602 10.8007Z" fill="#000091"/>
</svg>
