<svg width="64" height="18" viewBox="0 0 64 18" fill="none" xmlns="http://www.w3.org/2000/svg">
<path d="M7.426 10.143L6.327 7.03502C6.26167 6.87168 6.19167 6.68035 6.117 6.46102C6.047 6.24168 5.97933 6.00368 5.914 5.74702C5.84867 6.00835 5.77867 6.25102 5.704 6.47502C5.634 6.69435 5.56633 6.88568 5.501 7.04902L4.409 10.143H7.426ZM10.954 14H9.323C9.141 14 8.99167 13.958 8.875 13.874C8.763 13.7854 8.679 13.6734 8.623 13.538L7.937 11.599H3.891L3.205 13.538C3.15833 13.6547 3.07667 13.762 2.96 13.86C2.84333 13.9534 2.69633 14 2.519 14H0.874001L4.843 3.84302H6.992L10.954 14Z" fill="#34353E"/>
<path d="M19.765 5.53702H16.797V14H14.69V5.53702H11.722V3.84302H19.765V5.53702Z" fill="#34353E"/>
<path d="M25.8833 8.65202C26.2239 8.65202 26.5179 8.61002 26.7653 8.52602C27.0126 8.43735 27.2156 8.31835 27.3743 8.16902C27.5329 8.01502 27.6496 7.83535 27.7243 7.63002C27.7989 7.42468 27.8363 7.20068 27.8363 6.95802C27.8363 6.47735 27.6753 6.10402 27.3533 5.83802C27.0359 5.57202 26.5506 5.43902 25.8973 5.43902H24.8053V8.65202H25.8833ZM30.8043 14H28.9073C28.5526 14 28.2959 13.8647 28.1373 13.594L26.2053 10.479C26.1259 10.3577 26.0373 10.269 25.9393 10.213C25.8459 10.157 25.7059 10.129 25.5193 10.129H24.8053V14H22.7053V3.84302H25.8973C26.6066 3.84302 27.2133 3.91768 27.7173 4.06702C28.2213 4.21168 28.6343 4.41468 28.9563 4.67602C29.2783 4.93735 29.5139 5.25002 29.6633 5.61402C29.8126 5.97335 29.8873 6.37002 29.8873 6.80402C29.8873 7.14002 29.8383 7.45968 29.7403 7.76302C29.6469 8.06168 29.5093 8.33468 29.3273 8.58202C29.1453 8.82935 28.9213 9.04868 28.6553 9.24002C28.3893 9.43135 28.0859 9.58535 27.7453 9.70202C27.8806 9.77668 28.0066 9.86768 28.1233 9.97502C28.2399 10.0777 28.3449 10.2014 28.4383 10.346L30.8043 14Z" fill="#34353E"/>
<path d="M35.591 14H33.477V3.84302H35.591V14Z" fill="#34353E"/>
<path d="M43.5533 12.32C43.894 12.32 44.1997 12.264 44.4703 12.152C44.741 12.0354 44.9697 11.872 45.1563 11.662C45.343 11.452 45.4853 11.1977 45.5833 10.899C45.6813 10.6004 45.7303 10.2644 45.7303 9.89102V3.84302H47.8303V9.89102C47.8303 10.507 47.73 11.074 47.5293 11.592C47.3333 12.1054 47.051 12.5487 46.6823 12.922C46.3137 13.2954 45.8657 13.587 45.3383 13.797C44.811 14.007 44.216 14.112 43.5533 14.112C42.8907 14.112 42.2933 14.007 41.7613 13.797C41.234 13.587 40.786 13.2954 40.4173 12.922C40.0487 12.5487 39.764 12.1054 39.5633 11.592C39.3673 11.074 39.2693 10.507 39.2693 9.89102V3.84302H41.3693V9.89102C41.3693 10.2644 41.4183 10.6004 41.5163 10.899C41.6143 11.1977 41.7567 11.452 41.9433 11.662C42.13 11.872 42.3587 12.0354 42.6293 12.152C42.9 12.264 43.208 12.32 43.5533 12.32Z" fill="#34353E"/>
<path d="M62.707 3.84302V14H60.852V7.76302C60.852 7.63235 60.8543 7.49235 60.859 7.34302C60.8683 7.19368 60.8823 7.04202 60.901 6.88802L57.996 12.397C57.8373 12.7004 57.5923 12.852 57.261 12.852H56.967C56.8036 12.852 56.659 12.8147 56.533 12.74C56.407 12.6607 56.3066 12.5464 56.232 12.397L53.313 6.86702C53.327 7.03035 53.3386 7.18902 53.348 7.34302C53.3573 7.49235 53.362 7.63235 53.362 7.76302V14H51.507V3.84302H53.103C53.1916 3.84302 53.271 3.84535 53.341 3.85002C53.411 3.85468 53.4716 3.86868 53.523 3.89202C53.579 3.91068 53.628 3.94335 53.67 3.99002C53.7166 4.03202 53.761 4.09268 53.803 4.17202L56.645 9.59002C56.7336 9.75335 56.8153 9.92135 56.89 10.094C56.9693 10.2667 57.044 10.444 57.114 10.626C57.184 10.4394 57.2563 10.2574 57.331 10.08C57.4103 9.90268 57.4943 9.73235 57.583 9.56902L60.404 4.17202C60.446 4.09268 60.4903 4.03202 60.537 3.99002C60.5836 3.94335 60.6326 3.91068 60.684 3.89202C60.74 3.86868 60.8006 3.85468 60.866 3.85002C60.936 3.84535 61.0176 3.84302 61.111 3.84302H62.707Z" fill="#34353E"/>
</svg>
